<svg xmlns="http://www.w3.org/2000/svg" width="155" height="22" viewBox="0 0 155 22"><path d="M23.6.1l-8.9,20L5.6.1H3.5L.3,22H1.8L4.7,2.1l9.2,19.8h1.5l9-20,3.1,20h1.4L25.8.1ZM37,13.5,42.7,1.8l5.9,11.7ZM41.9,0,30.7,21.9h1.8l3.8-7.3H49.1L53,21.8h1.7L43.7,0ZM71.2,13.5,77,1.8l5.9,11.7ZM76.1,0,64.9,21.9h1.9l3.8-7.3H83.4l3.9,7.2H89L78,0Zm38.1,13.5,5.7-11.7,5.9,11.7ZM119.1,0,107.9,21.9h1.9l3.8-7.3h12.8l3.9,7.2H132L121,0ZM51.3.1V1.3h8.1V21.9h1.5V1.4h7.9V.1ZM92.5,0H90.9V22h15.4V20.8H92.5Zm40.9.1V22h1.5V2.1L153,22h1.7V.1h-1.5V19.8L135.1.1Z" fill="#eb0000"/></svg>