<?xml version="1.0" encoding="UTF-8"?>
<svg width="30px" height="24px" viewBox="0 0 30 24" version="1.1" xmlns="http://www.w3.org/2000/svg" xmlns:xlink="http://www.w3.org/1999/xlink">
    <!-- Generator: Sketch 51.3 (57544) - http://www.bohemiancoding.com/sketch -->
    <title>Group 2</title>
    <desc>Created with Sketch.</desc>
    <defs></defs>
    <g id="Idea" stroke="none" stroke-width="1" fill="none" fill-rule="evenodd">
        <g id="Mobile-/-Payment" transform="translate(-241.000000, -498.000000)" fill-rule="nonzero">
            <g id="Group-2" transform="translate(241.000000, 498.000000)">
                <g id="credit-card" fill="#000000">
                    <path d="M0,20.8333333 C0,22.2135417 1.11979167,23.3333333 2.5,23.3333333 L27.5,23.3333333 C28.8802083,23.3333333 30,22.2135417 30,20.8333333 L30,11.6666667 L0,11.6666667 L0,20.8333333 Z M10,17.2916667 C10,16.9479167 10.28125,16.6666667 10.625,16.6666667 L17.7083333,16.6666667 C18.0520833,16.6666667 18.3333333,16.9479167 18.3333333,17.2916667 L18.3333333,19.375 C18.3333333,19.71875 18.0520833,20 17.7083333,20 L10.625,20 C10.28125,20 10,19.71875 10,19.375 L10,17.2916667 Z M3.33333333,17.2916667 C3.33333333,16.9479167 3.61458333,16.6666667 3.95833333,16.6666667 L7.70833333,16.6666667 C8.05208333,16.6666667 8.33333333,16.9479167 8.33333333,17.2916667 L8.33333333,19.375 C8.33333333,19.71875 8.05208333,20 7.70833333,20 L3.95833333,20 C3.61458333,20 3.33333333,19.71875 3.33333333,19.375 L3.33333333,17.2916667 Z M30,2.5 L30,5 L0,5 L0,2.5 C0,1.11979167 1.11979167,0 2.5,0 L27.5,0 C28.8802083,0 30,1.11979167 30,2.5 Z" id="Shape"></path>
                </g>
                <rect id="Rectangle-5" stroke="#EB0000" x="12.5" y="15.5" width="7" height="6" rx="2.5"></rect>
            </g>
        </g>
    </g>
</svg>