<?xml version="1.0" encoding="UTF-8"?>
<svg width="41px" height="32px" viewBox="0 0 41 32" version="1.1" xmlns="http://www.w3.org/2000/svg" xmlns:xlink="http://www.w3.org/1999/xlink">
    <!-- Generator: Sketch 51.3 (57544) - http://www.bohemiancoding.com/sketch -->
    <title>Maestro</title>
    <desc>Created with Sketch.</desc>
    <defs>
        <polygon id="path-1" points="0.0337582418 0.0178285714 27.9710769 0.0178285714 27.9710769 4.57142857 0.0337582418 4.57142857"></polygon>
        <polygon id="path-3" points="0 31.8630681 40.9656264 31.8630681 40.9656264 -0.000140659341 0 -0.000140659341"></polygon>
    </defs>
    <g id="Symbols" stroke="none" stroke-width="1" fill="none" fill-rule="evenodd">
        <g id="Mobile/Footer/New" transform="translate(-185.000000, -53.000000)">
            <g id="Payment-Icons" transform="translate(17.000000, 52.000000)">
                <g id="Maestro" transform="translate(168.000000, 1.000000)">
                    <g id="Group-3" transform="translate(7.032967, 27.291640)">
                        <mask id="mask-2" fill="white">
                            <use xlink:href="#path-1"></use>
                        </mask>
                        <g id="Clip-2"></g>
                        <path d="M27.5713407,4.14231209 L27.5713407,4.22670769 L27.6487033,4.22670769 C27.6627692,4.23092747 27.6771868,4.23092747 27.6909011,4.22670769 C27.6958242,4.21686154 27.6958242,4.20525714 27.6909011,4.19505934 C27.6958242,4.18521319 27.6958242,4.17360879 27.6909011,4.16376264 C27.6771868,4.15954286 27.6627692,4.15954286 27.6487033,4.16376264 L27.5713407,4.14231209 Z M27.6487033,4.08253187 C27.6814066,4.08112527 27.7137582,4.09097143 27.7401319,4.11066374 C27.7619341,4.12894945 27.7738901,4.15637802 27.7717802,4.18450989 C27.7728352,4.20807033 27.764044,4.23127912 27.7471648,4.24780659 C27.7267692,4.26644396 27.7007473,4.2776967 27.6733187,4.27980659 L27.7752967,4.39585055 L27.6947692,4.39585055 L27.5994725,4.27980659 L27.5678242,4.27980659 L27.5678242,4.39585055 L27.501011,4.39585055 L27.501011,4.07233407 L27.6487033,4.08253187 Z M27.6276044,4.50134505 C27.6627692,4.50134505 27.6972308,4.49431209 27.7295824,4.47989451 C27.7598242,4.46653187 27.7872527,4.44719121 27.8108132,4.42398242 C27.9117363,4.3220044 27.9113846,4.15708132 27.8094066,4.05580659 C27.7861978,4.03294945 27.7591209,4.01466374 27.7295824,4.0020044 C27.6972308,3.98793846 27.6627692,3.98055385 27.6276044,3.98055385 C27.5927912,3.98090549 27.557978,3.98829011 27.5256264,4.0020044 C27.493978,4.01466374 27.4654945,4.03365275 27.4412308,4.05826813 C27.3501538,4.15743297 27.3501538,4.3104 27.4412308,4.40991648 C27.4908132,4.4594989 27.5576264,4.48727912 27.6276044,4.48692747 L27.6276044,4.50134505 Z M27.6276044,3.90670769 C27.6733187,3.90635604 27.7186813,3.9147956 27.7612308,3.93132308 C27.8016703,3.94785055 27.8385934,3.97176264 27.8705934,4.0020044 C27.9011868,4.03224615 27.9261538,4.06776264 27.9444396,4.10714725 C27.979956,4.19048791 27.979956,4.28437802 27.9444396,4.36771868 C27.9261538,4.40675165 27.9011868,4.44261978 27.8705934,4.47286154 C27.8385934,4.50275165 27.8016703,4.52701538 27.7612308,4.54354286 C27.7193846,4.56182857 27.6736703,4.57167473 27.6276044,4.57167473 C27.4915165,4.57061978 27.3684396,4.4907956 27.3111209,4.36771868 C27.2756044,4.28437802 27.2756044,4.19048791 27.3111209,4.10714725 C27.3294066,4.06776264 27.3543736,4.03224615 27.384967,4.0020044 C27.416967,3.97176264 27.4535385,3.94785055 27.493978,3.93132308 C27.5312527,3.91655385 27.5702857,3.90846593 27.610022,3.90670769 L27.6276044,3.90670769 Z M22.5709011,0.953213187 C22.7484835,0.953916484 22.9243077,0.984861538 23.0913407,1.04429011 L22.8662857,1.74758681 C22.7210549,1.68956484 22.5656264,1.66108132 22.4091429,1.66319121 C21.9309011,1.66319121 21.7058462,1.97264176 21.7058462,2.52824615 L21.7058462,4.40991648 L20.9744176,4.40991648 L20.9744176,1.05132308 L21.6988132,1.05132308 L21.6988132,1.45923516 C21.8816703,1.14556484 22.2217143,0.956378022 22.584967,0.967279121 L22.5709011,0.953213187 Z M20.0425495,1.70538901 L18.8504615,1.70538901 L18.8504615,3.22099341 C18.8504615,3.57264176 18.970022,3.78363077 19.3357363,3.78363077 C19.563956,3.77624615 19.7865495,3.71083956 19.9827692,3.59374066 L20.1941099,4.22002637 C19.9194725,4.39092747 19.6026374,4.4813011 19.2794725,4.47989451 C18.4144176,4.47989451 18.1123516,4.01607033 18.1123516,3.23505934 L18.1123516,1.70538901 L17.4298022,1.70538901 L17.4298022,1.03725714 L18.1123516,1.03725714 L18.1123516,0.0178285714 L18.8504615,0.0178285714 L18.8504615,1.03725714 L20.0425495,1.03725714 L20.0425495,1.70538901 Z M16.5260659,1.89527912 C16.205011,1.71066374 15.8417582,1.61114725 15.4711209,1.60692747 C15.0702418,1.60692747 14.8314725,1.75461978 14.8314725,2.00077363 C14.8314725,2.24692747 15.0843077,2.28912527 15.4011429,2.33167473 L15.7527912,2.38055385 C16.4838681,2.48604835 16.9269451,2.7954989 16.9269451,3.38661978 C16.9269451,3.97703736 16.3643077,4.48376264 15.3972747,4.48376264 C14.8789451,4.49747692 14.3701099,4.34450989 13.944967,4.04736703 L14.2966154,3.4776967 C14.6194286,3.71716923 15.0132747,3.8413011 15.4152088,3.82934505 C15.9145495,3.82934505 16.1814505,3.68165275 16.1814505,3.42143297 C16.1814505,3.23154286 15.9915604,3.12604835 15.591033,3.06978462 L15.2393846,3.02090549 C14.4865055,2.91541099 14.0785934,2.57782857 14.0785934,2.02890549 C14.0785934,1.36112527 14.6271648,0.953213187 15.4851868,0.953213187 C15.9655385,0.937037363 16.4402637,1.05870769 16.8534505,1.30486154 L16.5260659,1.89527912 Z M10.9489231,2.42275165 C10.9774066,1.95892747 11.367033,1.60024615 11.8315604,1.6107956 C12.2918681,1.6005978 12.6727033,1.96596044 12.6825495,2.42591648 L12.6825495,2.42626813 L10.9489231,2.42275165 Z M13.4491429,2.71813626 C13.4491429,1.66319121 12.7950769,0.959894505 11.8561758,0.959894505 C10.8852747,0.973608791 10.1091868,1.77185055 10.1225495,2.7431033 C10.1362637,3.7140044 10.9345055,4.49009231 11.9054066,4.47637802 C12.4061538,4.49360879 12.8956484,4.32587253 13.2803516,4.00516923 L12.9287033,3.46363077 C12.6512527,3.68657582 12.306989,3.81035604 11.9511209,3.81527912 C11.4482637,3.85853187 11.0027253,3.49387253 10.9454066,2.99242198 L13.4385934,2.99242198 C13.4491429,2.90450989 13.4491429,2.8165978 13.4491429,2.71813626 Z M25.1027692,1.66319121 C24.9596484,1.66108132 24.8175824,1.68780659 24.6843077,1.74055385 C24.5591209,1.79083956 24.4451868,1.86609231 24.3502418,1.96244396 C24.2531868,2.06336703 24.1782857,2.18292747 24.1287033,2.31409231 C24.0210989,2.59470769 24.0210989,2.90521319 24.1287033,3.18582857 C24.1779341,3.31699341 24.2531868,3.43655385 24.3502418,3.53747692 C24.4451868,3.63382857 24.5591209,3.70908132 24.6843077,3.75901538 C24.9522637,3.86415824 25.2497582,3.86415824 25.5177143,3.75901538 C25.6492308,3.71048791 25.7687912,3.63523516 25.8693626,3.53747692 C25.9667692,3.43690549 26.042022,3.31699341 26.0909011,3.18582857 C26.1985055,2.90521319 26.1985055,2.59470769 26.0909011,2.31409231 C26.042022,2.18292747 25.9667692,2.06301538 25.8693626,1.96244396 C25.7687912,1.86468571 25.6492308,1.78943297 25.5177143,1.74055385 C25.3851429,1.68007033 25.2416703,1.64631209 25.0957363,1.64244396 L25.1027692,1.66319121 Z M25.1027692,0.959894505 C25.3436484,0.959191209 25.5824176,1.00455385 25.8060659,1.09352088 C26.0198681,1.17897143 26.2146813,1.30591648 26.3792527,1.46661978 C26.5420659,1.62556484 26.6711209,1.81580659 26.759033,2.02538901 C26.9429451,2.47655385 26.9429451,2.98116923 26.759033,3.43198242 C26.6711209,3.64191648 26.5420659,3.83215824 26.3792527,3.9911033 C26.2146813,4.15180659 26.0198681,4.2784 25.8060659,4.36385055 C25.3422418,4.54424615 24.8281319,4.54424615 24.3643077,4.36385055 C24.1515604,4.27875165 23.9581538,4.15180659 23.7946374,3.9911033 C23.6335824,3.83145495 23.5055824,3.64156484 23.4183736,3.43198242 C23.2351648,2.98116923 23.2351648,2.47655385 23.4183736,2.02538901 C23.5055824,1.81615824 23.6335824,1.62626813 23.7946374,1.46661978 C23.9581538,1.30591648 24.1515604,1.17897143 24.3643077,1.09352088 C24.596044,0.997520879 24.8446593,0.948641758 25.0957363,0.949345055 L25.1027692,0.959894505 Z M6.75727473,2.71813626 C6.79032967,2.15796044 7.27138462,1.73070769 7.83156044,1.76341099 C8.39173626,1.79646593 8.81934066,2.27752088 8.78628571,2.8376967 C8.75498901,3.37290549 8.31296703,3.79171868 7.77705495,3.79453187 C7.2218022,3.80754286 6.76114286,3.36763077 6.74813187,2.81237802 C6.74742857,2.78108132 6.74813187,2.74943297 6.75024176,2.71813626 L6.75727473,2.71813626 Z M9.47551648,2.71813626 L9.47551648,1.04112527 L8.73705495,1.04112527 L8.73705495,1.44903736 C8.48562637,1.12411429 8.09248352,0.940905495 7.68210989,0.956378022 C6.71120879,0.956378022 5.92386813,1.74371868 5.92386813,2.71461978 C5.92386813,3.68587253 6.71120879,4.47286154 7.68210989,4.47286154 C8.09248352,4.48868571 8.48562637,4.30547692 8.73705495,3.98055385 L8.73705495,4.38846593 L9.46848352,4.38846593 L9.47551648,2.71813626 Z M5.36123077,4.39585055 L5.36123077,2.28596044 C5.40905495,1.59813626 4.89037363,1.00138901 4.20254945,0.953916484 C4.14945055,0.950048352 4.096,0.950048352 4.04254945,0.953213187 C3.56923077,0.921916484 3.11665934,1.15083956 2.86101099,1.55066374 C2.62821978,1.1627956 2.20167033,0.933520879 1.7498022,0.953213187 C1.35630769,0.933169231 0.981802198,1.12305934 0.765186813,1.45255385 L0.765186813,1.03725714 L0.0337582418,1.03725714 L0.0337582418,4.39585055 L0.77221978,4.39585055 L0.77221978,2.53563077 C0.711384615,2.10661978 1.00958242,1.70960879 1.43824176,1.64842198 C1.49028571,1.64138901 1.54268132,1.63927912 1.59507692,1.64244396 C2.08035165,1.64244396 2.32650549,1.95857582 2.32650549,2.52824615 L2.32650549,4.39585055 L3.06496703,4.39585055 L3.06496703,2.53563077 C3.008,2.10204835 3.31358242,1.70468571 3.74681319,1.64807033 C3.79358242,1.64209231 3.8407033,1.63998242 3.88782418,1.64244396 C4.38716484,1.64244396 4.62628571,1.95857582 4.62628571,2.52824615 L4.62628571,4.39585055 L5.36123077,4.39585055 Z" id="Fill-1" fill="#000000" mask="url(#mask-2)"></path>
                    </g>
                    <mask id="mask-4" fill="white">
                        <use xlink:href="#path-3"></use>
                    </mask>
                    <g id="Clip-5"></g>
                    <polygon id="Fill-4" fill="#7673C0" mask="url(#mask-4)" points="14.9436484 22.6143648 26.0205714 22.6143648 26.0205714 2.7079033 14.9436484 2.7079033"></polygon>
                    <path d="M15.6470857,12.6629978 C15.6428659,8.77798681 17.4260747,5.10677802 20.4822505,2.70783297 C14.9852835,-1.61216703 7.02677802,-0.658145055 2.70642637,4.83882198 C-1.61357363,10.3361407 -0.659551648,18.2946462 4.83741538,22.6146462 C9.42818462,26.2229099 15.8914813,26.2229099 20.4822505,22.6146462 C17.4271297,20.2164044 15.6439209,16.5469538 15.6470857,12.6629978" id="Fill-6" fill="#EB001B" mask="url(#mask-4)"></path>
                    <path d="M40.5682637,20.5046857 L40.5682637,20.0127297 L40.442022,20.0127297 L40.2943297,20.364378 L40.1462857,20.0127297 L40.0165275,20.0127297 L40.0165275,20.5046857 L40.1076044,20.5046857 L40.1076044,20.1354549 L40.2447473,20.4554549 L40.340044,20.4554549 L40.4768352,20.1354549 L40.4768352,20.5085538 L40.5682637,20.5046857 Z M39.755956,20.5046857 L39.755956,20.1111912 L39.9212308,20.1111912 L39.9212308,20.0267956 L39.5031209,20.0267956 L39.5031209,20.1111912 L39.668044,20.1111912 L39.668044,20.5187516 L39.755956,20.5046857 Z" id="Fill-7" fill="#00A1DF" mask="url(#mask-4)"></path>
                    <path d="M40.9621451,12.6629978 C40.9603868,19.654822 35.2914637,25.3209319 28.2996396,25.3191736 C25.4646505,25.3184703 22.7119473,24.3662066 20.4821451,22.6146462 C25.9794637,18.2946462 26.9331341,10.3361407 22.6131341,4.83882198 C21.9903648,4.04620659 21.2751121,3.33095385 20.4821451,2.70783297 C25.9787604,-1.61322198 33.9369143,-0.660606593 38.2583209,4.83565714 C40.0123429,7.06651429 40.9656615,9.82167912 40.9656615,12.6594813 L40.9621451,12.6629978 Z" id="Fill-8" fill="#00A1DF" mask="url(#mask-4)"></path>
                </g>
            </g>
        </g>
    </g>
</svg>