<?xml version="1.0" encoding="UTF-8"?>
<svg width="41px" height="32px" viewBox="0 0 41 32" version="1.1" xmlns="http://www.w3.org/2000/svg" xmlns:xlink="http://www.w3.org/1999/xlink">
    <!-- Generator: Sketch 51.3 (57544) - http://www.bohemiancoding.com/sketch -->
    <title>Mastercard</title>
    <desc>Created with Sketch.</desc>
    <defs>
        <polygon id="path-1" points="0 31.8631033 40.9656264 31.8631033 40.9656264 -0.000105494505 0 -0.000105494505"></polygon>
    </defs>
    <g id="Symbols" stroke="none" stroke-width="1" fill="none" fill-rule="evenodd">
        <g id="Mobile/Footer/New" transform="translate(-128.000000, -53.000000)">
            <g id="Payment-Icons" transform="translate(17.000000, 52.000000)">
                <g id="Mastercard" transform="translate(111.000000, 1.000000)">
                    <path d="M8.85665055,30.0062593 C8.88970549,29.4460835 9.37076044,29.0184791 9.93093626,29.0515341 C10.4911121,29.084589 10.9187165,29.565644 10.8856615,30.1261714 C10.8543648,30.6610286 10.4123429,31.0798418 9.87643077,31.0826549 C9.31906813,31.093556 8.85840879,30.6504791 8.84785934,30.0931165 C8.84715604,30.0642813 8.84785934,30.0354462 8.84961758,30.0062593 L8.85665055,30.0062593 Z M11.5784088,30.0062593 L11.5784088,28.3257319 L10.8469802,28.3257319 L10.8469802,28.733644 C10.5948484,28.4090725 10.2024088,28.2262154 9.79203516,28.2409846 C8.82113407,28.2409846 8.03379341,29.0283253 8.03379341,29.9992264 C8.03379341,30.9704791 8.82113407,31.7574681 9.79203516,31.7574681 C10.2024088,31.772589 10.5948484,31.5893802 10.8469802,31.2651604 L10.8469802,31.6730725 L11.5784088,31.6730725 L11.5784088,30.0062593 Z M36.2746725,30.0062593 C36.3077275,29.4460835 36.7887824,29.0184791 37.3489582,29.0515341 C37.9091341,29.084589 38.3367385,29.565644 38.3036835,30.1261714 C38.2720352,30.6610286 37.8307165,31.0798418 37.2944527,31.0826549 C36.7370901,31.0893363 36.2795956,30.6434462 36.2725626,30.0860835 C36.272211,30.0593582 36.2729143,30.0329846 36.2746725,30.0062593 Z M40.1428044,31.4343033 L40.1428044,31.5186989 L40.220167,31.5186989 C40.2338813,31.522567 40.2486505,31.522567 40.2627165,31.5186989 C40.2672879,31.5085011 40.2672879,31.4965451 40.2627165,31.4866989 C40.2672879,31.4768527 40.2672879,31.4648967 40.2627165,31.4550505 C40.2486505,31.4508308 40.2338813,31.4508308 40.220167,31.4550505 L40.1428044,31.4343033 Z M40.220167,31.3745231 C40.2528703,31.3727648 40.285222,31.382611 40.3115956,31.4026549 C40.3337495,31.4202374 40.3453538,31.4480176 40.343244,31.4765011 C40.3442989,31.4997099 40.3355077,31.522567 40.3186286,31.5394462 C40.298233,31.5580835 40.272211,31.5689846 40.2447824,31.5710945 L40.3467604,31.6871385 L40.2658813,31.6871385 L40.1709363,31.5710945 L40.1392879,31.5710945 L40.1392879,31.6871385 L40.0728264,31.6871385 L40.0728264,31.3776879 L40.220167,31.3745231 Z M40.1990681,31.792633 C40.2338813,31.7929846 40.2690462,31.7859516 40.3010462,31.7718857 C40.3312879,31.7581714 40.3587165,31.7391824 40.3819253,31.7152703 C40.4730022,31.6157538 40.4730022,31.4634901 40.3819253,31.363622 C40.3587165,31.3400615 40.3312879,31.3207209 40.3010462,31.3073582 C40.2690462,31.2932923 40.2338813,31.2862593 40.1990681,31.286611 C40.1639033,31.286611 40.1294418,31.293644 40.0970901,31.3073582 C40.0654418,31.3203692 40.0369582,31.3397099 40.0130462,31.363622 C39.9216176,31.4634901 39.9216176,31.6157538 40.0130462,31.7152703 C40.0369582,31.7395341 40.0654418,31.7585231 40.0970901,31.7718857 C40.1326066,31.7866549 40.1712879,31.7940396 40.2096176,31.792633 L40.1990681,31.792633 Z M40.1990681,31.1986989 C40.2447824,31.1979956 40.2904967,31.2060835 40.3326945,31.2229626 C40.3731341,31.2394901 40.4100571,31.2634022 40.4417055,31.2932923 C40.4726505,31.3238857 40.4976176,31.3597538 40.5155516,31.3987868 C40.5517714,31.4817758 40.5517714,31.5760176 40.5155516,31.6590066 C40.4976176,31.6983912 40.4726505,31.7342593 40.4417055,31.7645011 C40.4100571,31.7947429 40.3731341,31.8183033 40.3326945,31.8348308 C40.2908484,31.8534681 40.2451341,31.8629626 40.1990681,31.8629626 C40.0629802,31.8619077 39.9399033,31.7827868 39.8825846,31.6590066 C39.8470681,31.5760176 39.8470681,31.4817758 39.8825846,31.3987868 C39.9005187,31.3597538 39.9258374,31.3238857 39.9564308,31.2932923 C39.9880791,31.2634022 40.0253538,31.2394901 40.0654418,31.2229626 C40.1115077,31.2046769 40.1607385,31.196589 40.2096176,31.1986989 L40.1990681,31.1986989 Z M38.9788484,30.0062593 L38.9788484,26.9754022 L38.2755516,26.9754022 L38.2755516,28.733644 C38.0234198,28.4090725 37.6309802,28.2262154 37.2206066,28.2409846 C36.2493538,28.2409846 35.4623648,29.0283253 35.4623648,29.9992264 C35.4623648,30.9704791 36.2493538,31.7574681 37.2206066,31.7574681 C37.6309802,31.772589 38.0234198,31.5893802 38.2755516,31.2651604 L38.2755516,31.6730725 L38.9788484,31.6730725 L38.9788484,30.0062593 Z M20.6544527,28.8954022 C21.1144088,28.8852044 21.4955956,29.250567 21.5054418,29.7105231 L21.5054418,29.7108747 L19.7472,29.7108747 C19.7735736,29.2414242 20.1705846,28.8792264 20.6403868,28.8954022 L20.6544527,28.8954022 Z M20.6544527,28.2409846 C19.6835516,28.2550505 18.9074637,29.0529407 18.9208264,30.0241934 C18.9345407,30.9950945 19.7327824,31.7715341 20.7036835,31.7574681 C21.2097055,31.7838418 21.7072879,31.6206769 22.0997275,31.3006769 L21.7480791,30.7591385 C21.4702769,30.9813802 21.1267165,31.1055121 20.7704967,31.1107868 C20.2679912,31.1540396 19.8221011,30.7890286 19.7647824,30.2879297 L22.2614857,30.2879297 L22.2614857,30.0062593 C22.2614857,28.9513143 21.6074198,28.2480176 20.6650022,28.2480176 L20.6544527,28.2409846 Z M29.4808264,29.9992264 C29.5138813,29.4390505 29.9949363,29.0117978 30.5551121,29.0448527 C31.1156396,29.077556 31.5428923,29.5589626 31.5098374,30.1187868 C31.478189,30.6539956 31.0365187,31.0724571 30.5006066,31.0752703 C29.943244,31.0826549 29.4857495,30.6364132 29.4790681,30.0790505 C29.4787165,30.0526769 29.4794198,30.0259516 29.4808264,29.9992264 Z M32.2029363,29.9992264 L32.2029363,28.3257319 L31.4715077,28.3257319 L31.4715077,28.733644 C31.2193758,28.4090725 30.8269363,28.2262154 30.4165626,28.2409846 C29.4453099,28.2409846 28.6583209,29.0283253 28.6583209,29.9992264 C28.6583209,30.9704791 29.4453099,31.7574681 30.4165626,31.7574681 C30.8269363,31.772589 31.2193758,31.5893802 31.4715077,31.2651604 L31.4715077,31.6730725 L32.2029363,31.6730725 L32.2029363,29.9992264 Z M25.3524747,29.9992264 C25.3180132,30.9367209 26.0501451,31.7247648 26.9876396,31.7588747 C27.0400352,31.7609846 27.0931341,31.760633 27.1458813,31.7574681 C27.5850901,31.7799736 28.0165626,31.6368527 28.3555516,31.3569407 L28.0039033,30.7658198 C27.7510681,30.9588747 27.4426725,31.0650725 27.1247824,31.068589 C26.5304967,31.0204132 26.0877714,30.4992703 26.1359473,29.9053363 C26.1784967,29.3778637 26.5973099,28.9586989 27.1247824,28.9161495 C27.4426725,28.9196659 27.7510681,29.0258637 28.0039033,29.2189187 L28.3555516,28.6277978 C28.0165626,28.3475341 27.5850901,28.2047648 27.1458813,28.2269187 C26.2094418,28.1738198 25.4069802,28.8901275 25.354233,29.826567 C25.3510681,29.8796659 25.3503648,29.9324132 25.3524747,29.9851604 L25.3524747,29.9992264 Z M34.7766505,28.2409846 C34.4133978,28.2304352 34.0733538,28.4192703 33.8904967,28.733644 L33.8904967,28.3257319 L33.1661011,28.3257319 L33.1661011,31.6871385 L33.8975297,31.6871385 L33.8975297,29.8023033 C33.8975297,29.2470505 34.1370022,28.9372484 34.6008264,28.9372484 C34.7573099,28.9351385 34.9127385,28.9639736 35.0579692,29.021644 L35.2830242,28.3183473 C35.1159912,28.258567 34.940167,28.227622 34.7625846,28.2269187 L34.7766505,28.2409846 Z M15.1863209,28.592633 C14.7724308,28.3464791 14.2962989,28.2248088 13.8148923,28.2409846 C12.9639033,28.2409846 12.4082989,28.6492484 12.4082989,29.3170286 C12.4082989,29.8659516 12.816211,30.2035341 13.5687385,30.3086769 L13.9203868,30.3579077 C14.3212659,30.4141714 14.511156,30.5196659 14.511156,30.709556 C14.511156,30.9697758 14.2439033,31.1174681 13.7445626,31.1174681 C13.3429802,31.1290725 12.9491341,31.0052923 12.6263209,30.7658198 L12.2746725,31.3354901 C12.7008703,31.6329846 13.2111121,31.7859516 13.7304967,31.7718857 C14.7010462,31.7718857 15.2636835,31.3147429 15.2636835,30.6743912 C15.2636835,30.0343912 14.8206066,29.7745231 14.089178,29.6686769 L13.7375297,29.6194462 C13.4210462,29.5772484 13.1678593,29.5143033 13.1678593,29.2888967 C13.1678593,29.0638418 13.4069802,28.8954022 13.8078593,28.8954022 C14.1784967,28.899622 14.5417495,28.9987868 14.8628044,29.1834022 L15.1863209,28.592633 Z M24.6175297,28.2409846 C24.2542769,28.2304352 23.914233,28.4192703 23.7313758,28.733644 L23.7313758,28.3257319 L23.0069802,28.3257319 L23.0069802,31.6871385 L23.7384088,31.6871385 L23.7384088,29.8023033 C23.7384088,29.2470505 23.9775297,28.9372484 24.4417055,28.9372484 C24.598189,28.9351385 24.7536176,28.9639736 24.8988484,29.021644 L25.1239033,28.3183473 C24.9568703,28.258567 24.7810462,28.227622 24.6034637,28.2269187 L24.6175297,28.2409846 Z M18.3792879,28.3257319 L17.1766505,28.3257319 L17.1766505,27.3056 L16.438189,27.3056 L16.438189,28.3257319 L15.7700571,28.3257319 L15.7700571,28.9935121 L16.4522549,28.9935121 L16.4522549,30.5411165 C16.4522549,31.3214242 16.7546725,31.7859516 17.6197275,31.7859516 C17.9428923,31.7866549 18.2597275,31.696633 18.5340132,31.5253802 L18.3230242,30.8994462 C18.1268044,31.0165451 17.904211,31.0819516 17.6759912,31.0893363 C17.3243429,31.0893363 17.1907165,30.8642813 17.1907165,30.5266989 L17.1907165,28.9935121 L18.3863209,28.9935121 L18.3792879,28.3257319 Z M7.45357363,31.6871385 L7.45357363,29.5772484 C7.5013978,28.8876659 6.98095824,28.2898637 6.29137582,28.2416879 C6.23792527,28.2385231 6.18447473,28.2381714 6.13137582,28.2409846 C5.65805714,28.2103912 5.20548571,28.4393143 4.94983736,28.8391385 C4.71704615,28.4509187 4.29084835,28.221644 3.83862857,28.2409846 C3.44513407,28.2212923 3.07062857,28.4111824 2.85401319,28.7403253 L2.85401319,28.3257319 L2.12258462,28.3257319 L2.12258462,31.6871385 L2.86104615,31.6871385 L2.86104615,29.8378198 C2.80232088,29.4066989 3.10403516,29.0093363 3.5348044,28.950611 C3.58438681,28.9439297 3.63396923,28.9418198 3.6839033,28.9442813 C4.16917802,28.9442813 4.41533187,29.2611165 4.41533187,29.8304352 L4.41533187,31.7012044 L5.15379341,31.7012044 L5.15379341,29.8378198 C5.09717802,29.4042374 5.40205714,29.0068747 5.83528791,28.9502593 C5.88240879,28.9439297 5.92952967,28.9421714 5.97665055,28.9442813 C6.47599121,28.9442813 6.71511209,29.2611165 6.71511209,29.8304352 L6.71511209,31.7012044 L7.45357363,31.6871385 Z" id="Fill-1" fill="#231F20"></path>
                    <mask id="mask-2" fill="white">
                        <use xlink:href="#path-1"></use>
                    </mask>
                    <g id="Clip-4"></g>
                    <polygon id="Fill-3" fill="#FF5F00" mask="url(#mask-2)" points="14.9436484 22.6147516 26.0205714 22.6147516 26.0205714 2.70793846 14.9436484 2.70793846"></polygon>
                    <path d="M15.6469802,12.663033 C15.6427604,8.77802198 17.4259692,5.10681319 20.4821451,2.70786813 C14.985178,-1.61213187 7.02667253,-0.65810989 2.70632088,4.83885714 C-1.61367912,10.3361758 -0.659657143,18.2946813 4.83766154,22.6146813 C9.42843077,26.2225934 15.8913758,26.2225934 20.4821451,22.6146813 C17.4270242,20.2167912 15.6438154,16.546989 15.6469802,12.663033" id="Fill-5" fill="#EB001B" mask="url(#mask-2)"></path>
                    <path d="M40.9658374,12.663033 C40.9654857,19.6545055 35.2976176,25.3223736 28.3061451,25.3223736 C25.4683429,25.3223736 22.713178,24.3687033 20.4823209,22.6146813 C25.9792879,18.2946813 26.9336615,10.3361758 22.6133099,4.83885714 C21.990189,4.04624176 21.2749363,3.33098901 20.4823209,2.70786813 C25.9785846,-1.61318681 33.9370901,-0.660571429 38.2584967,4.83569231 C40.012167,7.06654945 40.9654857,9.82171429 40.9658374,12.6595165 L40.9658374,12.663033 Z" id="Fill-6" fill="#F79E1B" mask="url(#mask-2)"></path>
                    <path d="M40.5681934,20.5090429 L40.5681934,20.012589 L40.4419516,20.012589 L40.2942593,20.3671989 L40.146567,20.012589 L40.0336879,20.012589 L40.0336879,20.5090429 L40.1251165,20.5090429 L40.1251165,20.1367025 L40.262611,20.4593975 L40.3572044,20.4593975 L40.4943473,20.1367025 L40.4943473,20.512589 L40.5681934,20.5090429 Z M39.7558857,20.5090429 L39.7558857,20.0976954 L39.9211604,20.0976954 L39.9211604,20.012589 L39.5030505,20.012589 L39.5030505,20.0976954 L39.6820396,20.0976954 L39.6820396,20.5090429 L39.7558857,20.5090429 Z" id="Fill-7" fill="#F79E1B" mask="url(#mask-2)"></path>
                </g>
            </g>
        </g>
    </g>
</svg>