<?xml version="1.0" encoding="UTF-8"?>
<svg width="62px" height="16px" viewBox="0 0 62 16" version="1.1" xmlns="http://www.w3.org/2000/svg" xmlns:xlink="http://www.w3.org/1999/xlink">
    <!-- Generator: Sketch 51.3 (57544) - http://www.bohemiancoding.com/sketch -->
    <title>Paypal</title>
    <desc>Created with Sketch.</desc>
    <defs>
        <polygon id="path-1" points="0.240359509 0.28505 3.793 0.28505 3.793 9.78405 0.240359509 9.78405"></polygon>
        <polygon id="path-3" points="0 0.411 11.5919396 0.411 11.5919396 13.82595 0 13.82595"></polygon>
    </defs>
    <g id="Symbols" stroke="none" stroke-width="1" fill="none" fill-rule="evenodd">
        <g id="Mobile/Footer/New" transform="translate(-242.000000, -61.000000)">
            <g id="Payment-Icons" transform="translate(17.000000, 52.000000)">
                <g id="Paypal" transform="translate(225.000000, 9.000000)">
                    <path d="M23.5,7.07695 C23.313,8.30395 22.3755,8.30395 21.469,8.30395 L20.953,8.30395 L21.315,6.01245 C21.3365,5.87395 21.4565,5.77195 21.5965,5.77195 L21.833,5.77195 C22.4505,5.77195 23.033,5.77195 23.334,6.12395 C23.5135,6.33395 23.5685,6.64595 23.5,7.07695 M23.1055,3.87445 L19.686,3.87445 C19.452,3.87445 19.253,4.04445 19.2165,4.27545 L17.8335,13.04395 C17.806,13.21695 17.94,13.37295 18.1155,13.37295 L19.748,13.37295 C19.982,13.37295 20.181,13.20295 20.2175,12.97195 L20.5905,10.60645 C20.6265,10.37495 20.826,10.20495 21.0595,10.20495 L22.142,10.20495 C24.3945,10.20495 25.6945,9.11495 26.034,6.95495 C26.187,6.00995 26.0405,5.26745 25.598,4.74745 C25.112,4.17645 24.25,3.87445 23.1055,3.87445" id="Fill-1" fill="#253B80"></path>
                    <path d="M31.04445,10.22465 C30.88645,11.16015 30.14395,11.78815 29.19695,11.78815 C28.72145,11.78815 28.34145,11.63515 28.09745,11.34665 C27.85545,11.05965 27.76345,10.65115 27.84045,10.19565 C27.98795,9.26865 28.74295,8.62015 29.67545,8.62015 C30.14045,8.62015 30.51845,8.77465 30.76745,9.06615 C31.01695,9.36015 31.11595,9.77165 31.04445,10.22465 M33.32695,7.03715 L31.68945,7.03715 C31.54995,7.03715 31.42945,7.13965 31.40795,7.27765 L31.33545,7.73565 L31.22095,7.56965 C30.86645,7.05565 30.07595,6.88365 29.28695,6.88365 C27.47745,6.88365 25.93195,8.25415 25.63095,10.17615 C25.47445,11.13515 25.69695,12.05215 26.24095,12.69215 C26.73995,13.27965 27.45395,13.52515 28.30345,13.52515 C29.76145,13.52515 30.56995,12.58765 30.56995,12.58765 L30.49695,13.04265 C30.46945,13.21615 30.60345,13.37265 30.77795,13.37265 L32.25295,13.37265 C32.48745,13.37265 32.68545,13.20265 32.72245,12.97065 L33.60745,7.36665 C33.63595,7.19365 33.50195,7.03715 33.32695,7.03715" id="Fill-3" fill="#253B80"></path>
                    <path d="M42.04785,7.0374 L40.40235,7.0374 C40.24585,7.0374 40.09835,7.1154 40.00885,7.2459 L37.73935,10.5889 L36.77735,7.3764 C36.71685,7.1754 36.53185,7.0374 36.32135,7.0374 L34.70435,7.0374 C34.50785,7.0374 34.37135,7.2294 34.43385,7.4144 L36.24635,12.7334 L34.54235,15.1394 C34.40885,15.3289 34.54335,15.5889 34.77485,15.5889 L36.41835,15.5889 C36.57485,15.5889 36.72085,15.5129 36.80885,15.3849 L42.28235,7.4849 C42.41285,7.2959 42.27835,7.0374 42.04785,7.0374" id="Fill-5" fill="#253B80"></path>
                    <path d="M47.89065,7.07695 C47.70415,8.30395 46.76665,8.30395 45.85965,8.30395 L45.34415,8.30395 L45.70665,6.01245 C45.72815,5.87395 45.84715,5.77195 45.98715,5.77195 L46.22415,5.77195 C46.84065,5.77195 47.42365,5.77195 47.72515,6.12395 C47.90415,6.33395 47.95915,6.64595 47.89065,7.07695 M47.49615,3.87445 L44.07615,3.87445 C43.84215,3.87445 43.64365,4.04445 43.60715,4.27545 L42.22415,13.04395 C42.19615,13.21695 42.33065,13.37295 42.50515,13.37295 L44.25965,13.37295 C44.42265,13.37295 44.56265,13.25395 44.58815,13.09195 L44.98065,10.60645 C45.01665,10.37495 45.21565,10.20495 45.44965,10.20495 L46.53165,10.20495 C48.78465,10.20495 50.08415,9.11495 50.42365,6.95495 C50.57765,6.00995 50.43015,5.26745 49.98715,4.74745 C49.50215,4.17645 48.64065,3.87445 47.49615,3.87445" id="Fill-7" fill="#179BD7"></path>
                    <path d="M55.43455,10.22465 C55.27755,11.16015 54.53405,11.78815 53.58705,11.78815 C53.11205,11.78815 52.73155,11.63515 52.48705,11.34665 C52.24555,11.05965 52.15405,10.65115 52.23055,10.19565 C52.37905,9.26865 53.13255,8.62015 54.06555,8.62015 C54.53005,8.62015 54.90855,8.77465 55.15755,9.06615 C55.40805,9.36015 55.50705,9.77165 55.43455,10.22465 M57.71655,7.03715 L56.08055,7.03715 C55.94005,7.03715 55.82005,7.13965 55.79905,7.27765 L55.72705,7.73565 L55.61155,7.56965 C55.25755,7.05565 54.46705,6.88365 53.67855,6.88365 C51.86905,6.88365 50.32405,8.25415 50.02305,10.17615 C49.86705,11.13515 50.08855,12.05215 50.63255,12.69215 C51.13255,13.27965 51.84555,13.52515 52.69505,13.52515 C54.15305,13.52515 54.96155,12.58765 54.96155,12.58765 L54.88855,13.04265 C54.86105,13.21615 54.99505,13.37265 55.17055,13.37265 L56.64505,13.37265 C56.87855,13.37265 57.07755,13.20265 57.11355,12.97065 L57.99955,7.36665 C58.02655,7.19365 57.89255,7.03715 57.71655,7.03715" id="Fill-9" fill="#179BD7"></path>
                    <g id="Group-13" transform="translate(58.000000, 3.589000)">
                        <mask id="mask-2" fill="white">
                            <use xlink:href="#path-1"></use>
                        </mask>
                        <g id="Clip-12"></g>
                        <path d="M1.64745,0.52605 L0.24395,9.45505 C0.21645,9.62805 0.35045,9.78405 0.52495,9.78405 L1.93595,9.78405 C2.17045,9.78405 2.36945,9.61405 2.40545,9.38255 L3.78945,0.61455 C3.81695,0.44155 3.68295,0.28505 3.50845,0.28505 L1.92845,0.28505 C1.78895,0.28555 1.66895,0.38755 1.64745,0.52605" id="Fill-11" fill="#179BD7" mask="url(#mask-2)"></path>
                    </g>
                    <path d="M3.63305,15.0772 L3.89455,13.4162 L3.31205,13.4022 L0.53055,13.4022 L2.46355,1.1462 C2.46955,1.1087 2.48905,1.0747 2.51755,1.0502 C2.54605,1.0252 2.58255,1.0122 2.62055,1.0122 L7.31055,1.0122 C8.86755,1.0122 9.94205,1.3362 10.50305,1.9752 C10.76605,2.2752 10.93355,2.5887 11.01455,2.9337 C11.09955,3.2962 11.10105,3.7287 11.01805,4.2557 L11.01205,4.2947 L11.01205,4.6322 L11.27505,4.7817 C11.49655,4.8992 11.67255,5.0337 11.80755,5.1877 C12.03255,5.4437 12.17805,5.7702 12.23955,6.1567 C12.30305,6.5542 12.28205,7.0267 12.17805,7.5627 C12.05805,8.1787 11.86405,8.7147 11.60205,9.1542 C11.36105,9.5587 11.05405,9.8942 10.68955,10.1537 C10.34155,10.4007 9.92805,10.5882 9.46055,10.7087 C9.00755,10.8267 8.49105,10.8857 7.92455,10.8857 L7.55955,10.8857 C7.29855,10.8857 7.04505,10.9802 6.84605,11.1487 C6.64655,11.3202 6.51455,11.5557 6.47405,11.8127 L6.44655,11.9622 L5.98455,14.8897 L5.96355,14.9972 C5.95805,15.0307 5.94855,15.0477 5.93455,15.0597 C5.92205,15.0697 5.90405,15.0772 5.88655,15.0772 L3.63305,15.0772 Z" id="Fill-14" fill="#253B80"></path>
                    <path d="M11.5239,4.33355 C11.5099,4.42305 11.4939,4.51455 11.4759,4.60855 C10.8574,7.78405 8.7414,8.88105 6.0389,8.88105 L4.6629,8.88105 C4.3324,8.88105 4.0539,9.12105 4.0024,9.44705 L3.2979,13.91505 L3.0984,15.18155 C3.0649,15.39555 3.2299,15.58855 3.4459,15.58855 L5.8864,15.58855 C6.1754,15.58855 6.4209,15.37855 6.4664,15.09355 L6.4904,14.96905 L6.9499,12.05305 L6.9794,11.89355 C7.0244,11.60755 7.2704,11.39755 7.5594,11.39755 L7.9244,11.39755 C10.2889,11.39755 12.1399,10.43755 12.6809,7.65955 C12.9069,6.49905 12.7899,5.53005 12.1919,4.84855 C12.0109,4.64305 11.7864,4.47255 11.5239,4.33355" id="Fill-16" fill="#179BD7"></path>
                    <path d="M10.87695,4.0755 C10.78245,4.048 10.68495,4.023 10.58495,4.0005 C10.48445,3.9785 10.38145,3.959 10.27545,3.942 C9.90445,3.882 9.49795,3.8535 9.06245,3.8535 L5.38645,3.8535 C5.29595,3.8535 5.20995,3.874 5.13295,3.911 C4.96345,3.9925 4.83745,4.153 4.80695,4.3495 L4.02495,9.3025 L4.00245,9.447 C4.05395,9.121 4.33245,8.881 4.66295,8.881 L6.03895,8.881 C8.74145,8.881 10.85745,7.7835 11.47595,4.6085 C11.49445,4.5145 11.50995,4.423 11.52395,4.3335 C11.36745,4.2505 11.19795,4.1795 11.01545,4.119 C10.97045,4.104 10.92395,4.0895 10.87695,4.0755" id="Fill-18" fill="#222D65"></path>
                    <g id="Group-22" transform="translate(0.000000, 0.089000)">
                        <mask id="mask-4" fill="white">
                            <use xlink:href="#path-3"></use>
                        </mask>
                        <g id="Clip-21"></g>
                        <path d="M4.8069,4.26045 C4.8374,4.06395 4.9634,3.90345 5.1329,3.82245 C5.2104,3.78545 5.2959,3.76495 5.3864,3.76495 L9.0624,3.76495 C9.4979,3.76495 9.9044,3.79345 10.2754,3.85345 C10.3814,3.87045 10.4844,3.88995 10.5849,3.91195 C10.6849,3.93445 10.7824,3.95945 10.8769,3.98695 C10.9239,4.00095 10.9704,4.01545 11.0159,4.02995 C11.1984,4.09045 11.3679,4.16195 11.5244,4.24445 C11.7084,3.07095 11.5229,2.27195 10.8884,1.54845 C10.1889,0.75195 8.9264,0.41095 7.3109,0.41095 L2.6209,0.41095 C2.2909,0.41095 2.0094,0.65095 1.9584,0.97745 L0.0049,13.35995 C-0.0336,13.60495 0.1554,13.82595 0.4024,13.82595 L3.2979,13.82595 L4.0249,9.21345 L4.8069,4.26045 Z" id="Fill-20" fill="#253B80" mask="url(#mask-4)"></path>
                    </g>
                </g>
            </g>
        </g>
    </g>
</svg>