<?xml version="1.0" encoding="UTF-8"?>
<svg width="50px" height="16px" viewBox="0 0 50 16" version="1.1" xmlns="http://www.w3.org/2000/svg" xmlns:xlink="http://www.w3.org/1999/xlink">
    <!-- Generator: Sketch 51.3 (57544) - http://www.bohemiancoding.com/sketch -->
    <title>Visa</title>
    <desc>Created with Sketch.</desc>
    <defs>
        <polygon id="path-1" points="0.000659692308 0.0171076923 11.9642289 0.0171076923 11.9642289 15.9507692 0.000659692308 15.9507692"></polygon>
        <polygon id="path-3" points="0 0.00129476923 9.68235815 0.00129476923 9.68235815 8.38667323 0 8.38667323"></polygon>
    </defs>
    <g id="Symbols" stroke="none" stroke-width="1" fill="none" fill-rule="evenodd">
        <g id="Mobile/Footer/New" transform="translate(-17.000000, -61.000000)">
            <g id="Payment-Icons" transform="translate(17.000000, 52.000000)">
                <g id="Visa" transform="translate(0.000000, 9.000000)">
                    <polygon id="Fill-1" fill="#00579F" points="21.3342572 15.7530338 17.3460234 15.7530338 19.8405465 0.328836923 23.8285834 0.328836923"></polygon>
                    <g id="Group-12" transform="translate(0.000000, 0.032148)">
                        <g id="Group-4" transform="translate(23.827692, 0.000000)">
                            <mask id="mask-2" fill="white">
                                <use xlink:href="#path-1"></use>
                            </mask>
                            <g id="Clip-3"></g>
                            <path d="M11.9642289,0.673747692 C11.1775705,0.361673846 9.92986585,0.0171076923 8.38712123,0.0171076923 C4.44861046,0.0171076923 1.67514585,2.11729231 1.658112,5.11992615 C1.62542277,7.33531077 3.64383508,8.56578462 5.15344738,9.30444308 C6.69648738,10.0592492 7.22094277,10.5519508 7.22094277,11.2247385 C7.20528738,12.2580431 5.97412431,12.7343508 4.82591508,12.7343508 C3.23364431,12.7343508 2.38047508,12.4888369 1.08388431,11.91392 L0.558739692,11.6674708 L0.000659692308,15.1298708 C0.936044308,15.5560123 2.65936738,15.9342031 4.44861046,15.9507938 C8.63332431,15.9507938 11.3577551,13.8830523 11.3900012,10.6832492 C11.4059028,8.92738462 10.3401058,7.58200615 8.04230892,6.48258462 C6.64740431,5.77686154 5.79310277,5.30099692 5.79310277,4.57888 C5.80944738,3.92243692 6.51566277,3.25004308 8.09030892,3.25004308 C9.38680123,3.21710769 10.3394658,3.52878769 11.0610905,3.84066462 L11.4218043,4.00440615 L11.9642289,0.673747692 Z" id="Fill-2" fill="#00579F" mask="url(#mask-2)"></path>
                        </g>
                        <path d="M46.0155766,0.296679385 L42.9306782,0.296679385 C41.979392,0.296679385 41.2566351,0.575374769 40.8461489,1.57643323 L34.9221612,15.7206794 L39.1068751,15.7206794 C39.1068751,15.7206794 39.7958597,13.8169748 39.9439458,13.4069317 L45.0644874,13.4069317 C45.1789982,13.9484702 45.540352,15.7206794 45.540352,15.7206794 L49.2330535,15.7206794 L46.0155766,0.296679385 Z M41.0925982,10.2566548 C41.4210658,9.37055015 42.6849182,5.94108554 42.6849182,5.94108554 C42.6683274,5.97402092 43.0126966,5.03858708 43.2096197,4.46435938 L43.4883151,5.79339323 C43.4883151,5.79339323 44.2436135,9.48545477 44.4076012,10.2566548 L41.0925982,10.2566548 Z" id="Fill-5" fill="#00579F"></path>
                        <path d="M14.0149317,0.296679385 L10.1091594,10.8145378 L9.68237785,8.68136862 C8.96026092,6.21997785 6.69559631,3.54581169 4.168384,2.21608862 L7.74593477,15.7045317 L11.9633871,15.7045317 L18.2321378,0.296679385 L14.0149317,0.296679385 Z" id="Fill-7" fill="#00579F"></path>
                        <g id="Group-11" transform="translate(0.000000, 0.295385)">
                            <mask id="mask-4" fill="white">
                                <use xlink:href="#path-3"></use>
                            </mask>
                            <g id="Clip-10"></g>
                            <path d="M6.48230892,0.00129476923 L0.0656689231,0.00129476923 L-4.92307692e-06,0.312925538 C5.00538585,1.59292554 8.32033969,4.67826708 9.68235815,8.38667323 L8.28745354,1.29783631 C8.057792,0.312728615 7.35206892,0.0337870769 6.48230892,0.00129476923" id="Fill-9" fill="#FAA61A" mask="url(#mask-4)"></path>
                        </g>
                    </g>
                </g>
            </g>
        </g>
    </g>
</svg>