<?xml version="1.0" encoding="UTF-8"?>
<svg width="30px" height="33px" viewBox="0 0 30 33" version="1.1" xmlns="http://www.w3.org/2000/svg" xmlns:xlink="http://www.w3.org/1999/xlink">
    <!-- Generator: Sketch 51.3 (57544) - http://www.bohemiancoding.com/sketch -->
    <title>VisaPay</title>
    <desc>Created with Sketch.</desc>
    <defs>
        <polygon id="path-1" points="0.00547747748 0.042981982 29.9955856 0.042981982 29.9955856 32.8378018 0.00547747748 32.8378018"></polygon>
    </defs>
    <g id="Symbols" stroke="none" stroke-width="1" fill="none" fill-rule="evenodd">
        <g id="Mobile/Footer/New" transform="translate(-82.000000, -52.000000)">
            <g id="Payment-Icons" transform="translate(17.000000, 52.000000)">
                <g id="VisaPay" transform="translate(65.000000, 0.000000)">
                    <path d="M2.04872523,0.0521576577 C0.927148649,0.0521576577 3.15315315e-05,0.960851351 3.15315315e-05,2.08080631 L3.15315315e-05,30.8031036 C3.15315315e-05,31.9239144 0.927148649,32.8317523 2.04872523,32.8317523 L27.9590405,32.8317523 C29.0822387,32.8317523 29.9877342,31.9239144 29.9877342,30.8031036 L29.9877342,2.08080631 C29.9877342,0.960851351 29.0822387,0.0521576577 27.9590405,0.0521576577 L2.04872523,0.0521576577 Z" id="Fill-1" fill="#FFFFFF"></path>
                    <g id="Group-5" transform="translate(0.000000, 0.002072)">
                        <mask id="mask-2" fill="white">
                            <use xlink:href="#path-1"></use>
                        </mask>
                        <g id="Clip-4"></g>
                        <path d="M2.04052252,0.042981982 C0.918945946,0.042981982 0.00547747748,0.954873874 0.00547747748,2.07482883 L0.00547747748,30.806 C0.00547747748,31.9267658 0.918945946,32.8378018 2.04052252,32.8378018 L27.9597117,32.8378018 C29.0829099,32.8378018 29.9956126,31.9267658 29.9956126,30.806 L29.863,30.806 C29.863,31.8536577 29.0098018,32.7068559 27.9597117,32.7068559 L2.04052252,32.7068559 C0.992864865,32.7068559 0.138855856,31.8536577 0.138855856,30.806 L0.138855856,2.07482883 C0.138855856,1.02798198 0.992864865,0.173927928 2.04052252,0.173927928 L27.9597117,0.173927928 C29.0098018,0.173927928 29.863,1.02798198 29.863,2.07482883 L29.863,30.806 L29.9956126,30.806 L29.9956126,2.07482883 C29.9956126,0.954873874 29.0829099,0.042981982 27.9597117,0.042981982 L2.04052252,0.042981982 Z" id="Fill-3" fill="#0023A0" mask="url(#mask-2)"></path>
                    </g>
                    <path d="M29.9284189,20.973955 L29.9284189,30.8078288 C29.9284189,31.894045 29.0478784,32.7737748 27.9600405,32.7737748 L2.04085135,32.7737748 C0.953013514,32.7737748 0.0740495495,31.894045 0.0740495495,30.8078288 L0.0740495495,20.973955 L29.9284189,20.973955" id="Fill-6" fill="#0023A0"></path>
                    <path d="M9.04852252,27.3308468 L8.2900991,27.3308468 L8.2900991,30.2424685 L7.31154054,30.2424685 L7.31154054,23.0654865 L9.21645045,23.0654865 C10.7349189,23.0654865 11.6508198,23.8038198 11.6508198,25.1342703 C11.6508198,26.6021081 10.6103694,27.3308468 9.04852252,27.3308468 Z M9.16343243,23.9299459 L8.2900991,23.9299459 L8.2900991,26.4663874 L9.09996396,26.4663874 C10.0800991,26.4663874 10.6618108,26.0606216 10.6618108,25.1672432 C10.6618108,24.3453514 10.1428018,23.9299459 9.16343243,23.9299459 Z M17.1118108,30.315982 L16.269018,28.0904865 L13.306045,28.0904865 L12.4937477,30.2428288 L11.5039279,30.2428288 L14.3135225,23.0337297 L15.2920811,23.0337297 L18.0590631,30.1078288 L17.1118108,30.315982 Z M14.7827117,24.1987297 L13.637036,27.2267928 L15.9372162,27.2267928 L14.7827117,24.1987297 Z M21.0037928,27.3927838 L21.0037928,30.2425586 L20.026,30.2425586 L20.026,27.3927838 L17.4871712,23.1997207 L18.4657748,22.9916577 L20.5241081,26.4985495 L22.5319009,23.0655766 L23.6140631,23.0655766 L21.0037928,27.3927838 Z" id="Fill-8" fill="#FFFFFF"></path>
                    <path d="M18.8237613,2.83934234 L14.9400225,13.3143423 L14.5640315,11.1876757 C13.5983108,8.5806036 11.7223198,5.98312613 9.27988739,4.87443243 L12.5803829,18.1766847 L16.781464,18.1734414 L23.0272297,2.83934234 L18.8237613,2.83934234" id="Fill-10" fill="#0023A0"></path>
                    <path d="M11.5137477,2.83468018 L5.29685586,2.83468018 L5.22699099,3.23882432 C10.2057748,4.51062613 13.1985225,7.49693243 14.565955,11.1886441 L13.3118108,4.13062613 C13.0732072,3.15846396 12.3782072,2.86760811 11.5137477,2.83468018" id="Fill-12" fill="#FFA000"></path>
                </g>
            </g>
        </g>
    </g>
</svg>